<svg xmlns="http://www.w3.org/2000/svg" width="78.319" height="78.319" viewBox="0 0 78.319 78.319"><path d="M18.369 31.75l10.752-10.527 3.136 3.359 2.688-11.423-11.423 2.464 3.359 3.36L16.354 29.51zm46.367 13.665L54.209 55.943l-3.359-3.36-2.464 11.424 11.425-2.689-3.362-3.136 10.53-10.527zm-25.983 25.76c-.447-.896-.896-.896-1.567-1.121-3.36-1.345-6.272-1.791-9.408-2.912-.224-.224-1.12-.672-1.12-2.239 0-.672-.224-1.119-.896-1.119-.226 0-.226 0-.226-.445-.224-1.568-.224-2.24-.224-2.467 0-.225.224-.445.224-.445 1.12-1.568 1.345-3.361 1.568-4.48 0 0 .224.226.448-.447.224-.674.224-.896.447-1.793.225-.672.225-1.791-.447-1.791-.448.224-.448 0-.448-.448v-4.257c-.225-1.567-1.12-2.463-1.792-2.911-1.12-.673-1.344-.896-1.792-1.345-.448-.446-.448-.896 0-1.344.224-.225.448-.447.672-.447h-.224c-.226 0-2.688.447-3.584.672-1.792.447-3.584 1.119-5.152 2.238-1.12.896-2.017 1.793-2.017 3.137v4.257c0 .226 0 .672-.447.448-.896 0-.448 1.566-.448 1.791.225.896.448 1.119.672 1.793.226.447.448.447.448.447.225 1.119.672 3.137 1.568 4.48.224.223.224.445.224.672-.224.895-.224 1.791-.224 2.463 0 .225-.226.449-.448.449-.672 0-.896.445-.896 1.119 0 1.119-.673 2.016-1.12 2.238-1.567.672-7.393 2.467-9.185 2.912-1.344.446-1.567.896-1.792 1.344L0 75.434h40.319l-1.566-4.259zm39.566-34.023H37.943l1.699-4.373c.244-.489.508-1.013 1.945-1.491 1.843-.46 7.394-2.24 8.941-2.904.318-.158.968-.943.968-2.01 0-1.131.623-1.369 1.146-1.369.084 0 .195-.112.195-.197 0-.675 0-1.6.234-2.526-.008-.145-.008-.282-.16-.433-.875-1.092-1.334-2.912-1.607-4.244-.131-.069-.299-.216-.454-.524-.1-.292-.187-.481-.272-.671a6.084 6.084 0 0 1-.418-1.174c-.009-.093-.021-.155-.034-.236-.099-.582-.177-1.234.143-1.612a.73.73 0 0 1 .581-.253l.111.026a.274.274 0 0 0 .099.035c-.013-.023-.013-.202-.013-.26V8.679c0-1.516 1.043-2.477 2.111-3.331 1.416-1.013 3.129-1.759 5.246-2.288.517-.129 1.366-.175 1.937-.175 1.164 0 1.227.149 1.28.281l.064.155-.131.159c-.352.352-.352.639 0 .99.432.432.647.649 1.743 1.307.612.408 1.661 1.343 1.911 3.091l.003 4.292a2.24 2.24 0 0 1-.089.662c.179.037.33.137.443.295.344.478.236 1.344.08 1.81-.108.327-.163.546-.219.765-.057.229-.114.458-.229.802-.046.138-.172.519-.44.626-.033.786-.245 2.547-1.387 4.145-.09.095-.178.226-.178.302 0 .218 0 .879.222 2.429l.004.233c.518.008 1.121.255 1.121 1.369 0 1.219.579 1.681.89 1.929.042.034.079.063.11.091 1.337.443 2.581.785 3.784 1.114 1.84.504 3.578.981 5.587 1.786.083.027.176.054.264.081.539.161 1.005.299 1.435 1.159l1.71 4.394zm-39.646-.5h38.916l-1.437-3.692c-.323-.645-.623-.734-1.12-.882-.093-.028-.19-.057-.293-.091-1.997-.799-3.722-1.272-5.547-1.772-1.226-.336-2.492-.683-3.861-1.139l-.098-.061c-.027-.028-.068-.059-.115-.097-.351-.28-1.078-.861-1.078-2.32 0-.764-.311-.869-.646-.869-.477 0-.477-.263-.477-.698-.225-1.549-.225-2.238-.225-2.464 0-.319.268-.595.299-.625 1.178-1.654 1.271-3.541 1.271-4.079v-.603l.347.346c.022-.044.065-.126.113-.271.108-.328.163-.547.219-.766.057-.229.114-.458.229-.802.148-.443.18-1.094-.012-1.36a.221.221 0 0 0-.198-.103h-.104l-.073-.073c-.21-.211-.188-.373-.139-.563.028-.104.065-.246.065-.509V8.903a3.87 3.87 0 0 0-1.682-2.704c-1.135-.683-1.367-.914-1.827-1.375-.454-.455-.531-.947-.23-1.415a7.13 7.13 0 0 0-.629-.023c-.702 0-1.432.064-1.815.161-2.056.513-3.712 1.233-5.065 2.201-1.177.941-1.913 1.764-1.913 2.932v4.256c0 .188 0 .76-.487.76a.67.67 0 0 1-.259-.059c-.086.009-.125.043-.15.073-.196.232-.081.915-.032 1.206a2 2 0 0 1 .034.259c.122.456.248.734.382 1.028.092.204.185.408.277.686.125.243.239.278.24.278h.205l.01.198c.259 1.291.697 3.125 1.517 4.149.281.277.281.583.281.828-.227.927-.227 1.816-.227 2.465 0 .358-.338.697-.695.697-.336 0-.646.105-.646.869 0 1.255-.751 2.212-1.258 2.464-1.576.676-7.174 2.472-9.012 2.93-1.223.408-1.418.797-1.625 1.209l-1.43 3.676z"/></svg>